<svg width="123" height="29" viewBox="0 0 123 29" fill="none" xmlns="http://www.w3.org/2000/svg">
<path d="M8.63068 22H0.896307V0.181818H8.6946C10.8892 0.181818 12.7784 0.618608 14.3622 1.49219C15.946 2.35866 17.1641 3.60511 18.0163 5.23153C18.8757 6.85795 19.3054 8.80398 19.3054 11.0696C19.3054 13.3423 18.8757 15.2955 18.0163 16.929C17.1641 18.5625 15.9389 19.8161 14.3409 20.6896C12.75 21.5632 10.8466 22 8.63068 22ZM5.50923 18.0476H8.43892C9.80256 18.0476 10.9496 17.8061 11.88 17.3232C12.8175 16.8331 13.5206 16.0767 13.9893 15.054C14.4652 14.0241 14.7031 12.696 14.7031 11.0696C14.7031 9.45739 14.4652 8.13991 13.9893 7.11719C13.5206 6.09446 12.821 5.34162 11.8906 4.85866C10.9602 4.37571 9.81321 4.13423 8.44957 4.13423H5.50923V18.0476ZM33.1309 15.0327V5.63636H37.6692V22H33.312V19.0277H33.1415C32.7722 19.9865 32.1578 20.7571 31.2985 21.3395C30.4462 21.9219 29.4057 22.2131 28.177 22.2131C27.0833 22.2131 26.1209 21.9645 25.29 21.4673C24.459 20.9702 23.8091 20.2635 23.3404 19.3473C22.8787 18.4311 22.6444 17.3338 22.6373 16.0554V5.63636H27.1756V15.2457C27.1827 16.2116 27.4419 16.9751 27.9533 17.5362C28.4647 18.0973 29.15 18.3778 30.0094 18.3778C30.5563 18.3778 31.0676 18.2536 31.5435 18.005C32.0194 17.7493 32.4029 17.3729 32.6941 16.8757C32.9924 16.3786 33.138 15.7642 33.1309 15.0327ZM45.4116 17.2912L45.4222 11.8473H46.0827L51.3242 5.63636H56.5337L49.4918 13.8608H48.4158L45.4116 17.2912ZM41.2994 22V0.181818H45.8377V22H41.2994ZM51.5266 22L46.7113 14.8729L49.7369 11.6662L56.8427 22H51.5266ZM94.3347 22.3089C93.2907 22.3089 92.3603 22.1278 91.5435 21.7656C90.7267 21.3963 90.0804 20.853 89.6046 20.1357C89.1358 19.4112 88.9015 18.5092 88.9015 17.4297C88.9015 16.5206 89.0684 15.7571 89.4022 15.1392C89.736 14.5213 90.1905 14.0241 90.7658 13.6477C91.3411 13.2713 91.9945 12.9872 92.726 12.7955C93.4647 12.6037 94.2388 12.4688 95.0485 12.3906C96.0002 12.2912 96.7672 12.1989 97.3496 12.1136C97.932 12.0213 98.3546 11.8864 98.6174 11.7088C98.8801 11.5312 99.0115 11.2685 99.0115 10.9205V10.8565C99.0115 10.1818 98.7985 9.6598 98.3723 9.29048C97.9533 8.92116 97.3567 8.73651 96.5826 8.73651C95.7658 8.73651 95.1159 8.91761 94.633 9.27983C94.15 9.63494 93.8304 10.0824 93.6742 10.6222L89.4767 10.2812C89.6898 9.28693 90.1088 8.42756 90.7338 7.70312C91.3588 6.97159 92.165 6.41051 93.1522 6.01989C94.1465 5.62216 95.2971 5.4233 96.6039 5.4233C97.513 5.4233 98.383 5.52983 99.214 5.7429C100.052 5.95597 100.794 6.28622 101.441 6.73366C102.094 7.18111 102.609 7.75639 102.985 8.45952C103.362 9.15554 103.55 9.99006 103.55 10.9631V22H99.2459V19.7308H99.1181C98.8553 20.2422 98.5037 20.6932 98.0634 21.0838C97.623 21.4673 97.0939 21.7692 96.476 21.9893C95.8581 22.2024 95.1444 22.3089 94.3347 22.3089ZM95.6344 19.1768C96.302 19.1768 96.8915 19.0455 97.4029 18.7827C97.9142 18.5128 98.3155 18.1506 98.6067 17.696C98.8979 17.2415 99.0435 16.7266 99.0435 16.1513V14.4148C98.9015 14.5071 98.7061 14.5923 98.4576 14.6705C98.2161 14.7415 97.9426 14.8089 97.6373 14.8729C97.3319 14.9297 97.0265 14.983 96.7211 15.0327C96.4157 15.0753 96.1387 15.1143 95.8901 15.1499C95.3574 15.228 94.8922 15.3523 94.4945 15.5227C94.0968 15.6932 93.7878 15.924 93.5676 16.2152C93.3475 16.4993 93.2374 16.8544 93.2374 17.2805C93.2374 17.8984 93.4611 18.3707 93.9086 18.6974C94.3631 19.017 94.9384 19.1768 95.6344 19.1768ZM111.609 12.5398V22H107.071V5.63636H111.396V8.52344H111.588C111.95 7.57173 112.557 6.81889 113.41 6.26491C114.262 5.70384 115.295 5.4233 116.51 5.4233C117.646 5.4233 118.637 5.67187 119.482 6.16903C120.327 6.66619 120.984 7.37642 121.453 8.29972C121.922 9.21591 122.156 10.3097 122.156 11.581V22H117.618V12.3906C117.625 11.3892 117.369 10.608 116.851 10.0469C116.332 9.47869 115.618 9.1946 114.709 9.1946C114.099 9.1946 113.559 9.32599 113.09 9.58878C112.628 9.85156 112.266 10.2351 112.003 10.7393C111.748 11.2365 111.616 11.8366 111.609 12.5398Z" fill="white"/>
<path d="M73.0465 28.2855C70.7809 28.2855 68.7638 27.9766 66.9954 27.3587C65.2269 26.7479 63.7319 25.8494 62.5103 24.6634C61.2887 23.4844 60.3583 22.0426 59.7191 20.3381C59.0799 18.6335 58.7603 16.6946 58.7603 14.5213C58.7603 12.3764 59.0799 10.4304 59.7191 8.68324C60.3654 6.93608 61.3065 5.4375 62.5423 4.1875C63.7781 2.9304 65.2873 1.96449 67.07 1.28977C68.8597 0.615056 70.8981 0.277698 73.185 0.277698C75.3015 0.277698 77.1907 0.586647 78.8526 1.20455C80.5217 1.82244 81.935 2.70313 83.0927 3.84659C84.2575 4.98295 85.1417 6.33594 85.7454 7.90554C86.3562 9.46804 86.658 11.1974 86.6509 13.0938C86.658 14.4006 86.5444 15.6009 86.31 16.6946C86.0756 17.7884 85.7063 18.7436 85.2021 19.5604C84.7049 20.37 84.0515 21.0128 83.2418 21.4886C82.4322 21.9574 81.4521 22.2237 80.3015 22.2876C79.4776 22.3516 78.81 22.2912 78.2987 22.1065C77.7873 21.9219 77.3967 21.6484 77.1268 21.2862C76.864 20.9169 76.6935 20.4872 76.6154 19.9972H76.4876C76.3171 20.4233 75.9833 20.8104 75.4862 21.1584C74.989 21.4993 74.3817 21.7656 73.6644 21.9574C72.9542 22.142 72.1978 22.2095 71.3952 22.1598C70.5572 22.1101 69.7617 21.9148 69.0089 21.5739C68.2631 21.233 67.5991 20.7393 67.0167 20.093C66.4414 19.4467 65.9869 18.6477 65.6531 17.696C65.3263 16.7443 65.1594 15.6435 65.1523 14.3935C65.1594 13.1577 65.3335 12.0817 65.6744 11.1655C66.0224 10.2493 66.4805 9.47869 67.0487 8.85369C67.6239 8.22869 68.2631 7.73864 68.9663 7.38352C69.6694 7.02841 70.3761 6.80114 71.0863 6.7017C71.8888 6.58097 72.6488 6.58097 73.3661 6.7017C74.0835 6.82244 74.6871 7.01776 75.1772 7.28764C75.6744 7.55753 75.9833 7.84872 76.104 8.16122H76.2532V6.96804H79.5877V17.3658C79.5948 17.8558 79.7049 18.2358 79.918 18.5057C80.131 18.7756 80.4187 18.9105 80.7809 18.9105C81.271 18.9105 81.6793 18.6939 82.006 18.2607C82.3398 17.8274 82.5884 17.1634 82.7518 16.2685C82.9222 15.3736 83.0075 14.2337 83.0075 12.8487C83.0075 11.5135 82.8299 10.3416 82.4748 9.3331C82.1268 8.31747 81.6367 7.45455 81.0046 6.74432C80.3796 6.02699 79.6516 5.4446 78.8207 4.99716C77.9897 4.54972 77.0877 4.22301 76.1147 4.01705C75.1488 3.81108 74.1545 3.7081 73.1317 3.7081C71.3633 3.7081 69.8185 3.97798 68.4975 4.51776C67.1765 5.05043 66.0756 5.79972 65.195 6.76562C64.3143 7.73153 63.6538 8.86435 63.2134 10.1641C62.7802 11.4567 62.56 12.8665 62.5529 14.3935C62.56 16.0767 62.7944 17.5682 63.256 18.8679C63.7248 20.1605 64.4137 21.2472 65.3228 22.1278C66.2319 23.0085 67.354 23.6761 68.6893 24.1307C70.0245 24.5852 71.5586 24.8125 73.2915 24.8125C74.1083 24.8125 74.9073 24.7521 75.6886 24.6314C76.4698 24.5178 77.1765 24.3757 77.8086 24.2053C78.4407 24.0419 78.9485 23.8821 79.332 23.7259L80.3867 26.8153C79.9393 27.071 79.332 27.3089 78.565 27.5291C77.805 27.7564 76.9457 27.9375 75.9869 28.0724C75.0352 28.2145 74.055 28.2855 73.0465 28.2855ZM72.5565 18.6548C73.4229 18.6548 74.1119 18.4879 74.6232 18.1541C75.1417 17.8203 75.511 17.3267 75.7312 16.6733C75.9585 16.0128 76.065 15.1996 76.0508 14.2337C76.0437 13.3814 75.9336 12.6605 75.7205 12.071C75.5146 11.4744 75.1559 11.0234 74.6445 10.718C74.1403 10.4055 73.4371 10.2493 72.5352 10.2493C71.7468 10.2493 71.0756 10.4162 70.5217 10.75C69.9748 11.0838 69.5558 11.5526 69.2646 12.1562C68.9805 12.7528 68.8349 13.456 68.8278 14.2656C68.8349 15.0185 68.9556 15.7322 69.19 16.407C69.4244 17.0746 69.8114 17.6179 70.3512 18.0369C70.891 18.4489 71.6261 18.6548 72.5565 18.6548Z" fill="#FF3D00"/>
</svg>
